<svg width="605.8800048828125px" height="559.6400146484375px" xmlns="http://www.w3.org/2000/svg" viewBox="-52.94000244140625 -204.82000732421875 605.8800048828125 559.6400146484375" style="background: rgb(210, 210, 203);" preserveAspectRatio="xMidYMid"><defs><filter id="editing-hover" x="-100%" y="-100%" width="300%" height="300%"><feFlood flood-color="#83a79d" result="flood"></feFlood><feComposite operator="in" in2="SourceAlpha" in="flood" result="shadow"></feComposite><feOffset dx="-4" dy="-4.7" in="SourceGraphic" result="offset-1"></feOffset><feOffset dx="4" dy="4.7" in="shadow" result="offset-2"></feOffset><feMerge><feMergeNode in="offset-2"></feMergeNode><feMergeNode in="offset-1"></feMergeNode></feMerge></filter></defs><g filter="url(#editing-hover)"><g transform="translate(34.40000629425049, 216.39999389648438)"><path d="M81.80 89.60L81.80 89.60Q78.60 89.60 78.20 85.40L78.20 85.40L78.20 85.40Q84.40 47.20 88.90 28.90L88.90 28.90L88.90 28.90Q93.40 10.60 100.80-13.40L100.80-13.40L100.80-13.40Q82.60 3 53.20 3L53.20 3L53.20 3Q38.80 3 28.70-5.40L28.70-5.40L28.70-5.40Q18.60-13.80 13.40-27.20L13.40-27.20L13.40-27.20Q8.20-40.60 8.20-55.80L8.20-55.80L8.20-55.80Q8.20-84.60 20.10-116.60L20.10-116.60L20.10-116.60Q32-148.60 50.50-170L50.50-170L50.50-170Q69-191.40 87.40-191.40L87.40-191.40L87.40-191.40Q104-191.40 114.10-181.50L114.10-181.50L114.10-181.50Q124.20-171.60 127.20-154L127.20-154L127.20-154Q126.40-148 124-148L124-148L124-148Q122-148 119.10-152.40L119.10-152.40L119.10-152.40Q116.20-156.80 113.40-163.20L113.40-163.20L113.40-163.20Q105.60-182 87.40-182L87.40-182L87.40-182Q69.40-182 53.20-161.50L53.20-161.50L53.20-161.50Q37-141 27.20-111.90L27.20-111.90L27.20-111.90Q17.40-82.80 17.40-60L17.40-60L17.40-60Q17.40-36.20 26.20-21.10L26.20-21.10L26.20-21.10Q35-6 54.60-6L54.60-6L54.60-6Q89.20-6 101.80-25.20L101.80-25.20L101.80-25.20Q105-30 106.20-34.20L106.20-34.20L106.20-34.20Q107.40-38.40 107.40-43L107.40-43L107.40-43Q106.40-45.80 97.80-54.60L97.80-54.60L97.80-54.60Q89.20-63.40 81.80-68.60L81.80-68.60L81.80-68.60Q69-66 52.60-63.80L52.60-63.80L52.60-63.80Q48.60-64.20 48.60-67.40L48.60-67.40L48.60-67.40Q48.60-70 51-72L51-72L51-72Q64-81.40 73.60-81.40L73.60-81.40L73.60-81.40Q79.40-81.40 84.80-78.40L84.80-78.40L84.80-78.40Q109.20-83.80 139.20-93.40L139.20-93.40L139.20-93.40Q144-93.40 144-90L144-90L144-90Q144-88.80 143.20-87L143.20-87L143.20-87Q117.40-44.40 104.40 4.80L104.40 4.80L104.40 4.80Q100.20 20.40 97.80 31.90L97.80 31.90L97.80 31.90Q95.40 43.40 91.60 62.40L91.60 62.40L87.40 84L87.40 84Q87.20 86.20 85.30 87.90L85.30 87.90L85.30 87.90Q83.40 89.60 81.80 89.60L81.80 89.60ZM114.20-49.80L114.20-49.80Q117.40-56.80 122.70-67.40L122.70-67.40L122.70-67.40Q128-78 130-81.40L130-81.40L130-81.40Q112-75.40 94.40-71.20L94.40-71.20L94.40-71.20Q99-66.80 105-60.20L105-60.20L105-60.20Q111-53.60 114.20-49.80L114.20-49.80ZM175.60 1.80L175.60 1.80Q165.20 1.80 160.10-6.40L160.10-6.40L160.10-6.40Q155-14.60 155-26L155-26L155-26Q155-44.20 161.10-61.30L161.10-61.30L161.10-61.30Q167.20-78.40 177.80-89.60L177.80-89.60L177.80-89.60Q188-101 200.80-101L200.80-101L200.80-101Q219.20-101 219.20-73L219.20-73L219.20-73Q219.20-59 214.60-44.40L214.60-44.40L214.60-44.40Q210-29.80 202.70-18.40L202.70-18.40L202.70-18.40Q195.40-7 187.60-2L187.60-2L187.60-2Q181.60 1.80 175.60 1.80L175.60 1.80ZM177.20-7.20L177.20-7.20Q183.40-7.20 191.10-18L191.10-18L191.10-18Q198.80-28.80 204-44.80L204-44.80L204-44.80Q209.40-60.80 209.40-72L209.40-72L209.40-72Q209.40-83.60 208-86.40L208-86.40L208-86.40Q206.80-89.40 205-90.60L205-90.60L205-90.60Q203.20-91.80 199.40-91.80L199.40-91.80L199.40-91.80Q195.20-91.80 190.60-88.60L190.60-88.60L190.60-88.60Q181.40-82.80 174.60-68.60L174.60-68.60L174.60-68.60Q164-47.40 164-27.40L164-27.40L164-27.40Q164-13.80 171.80-8.60L171.80-8.60L171.80-8.60Q174.60-7.20 177.20-7.20L177.20-7.20ZM296.20 0.40L296.20 0.40Q291.60 0.40 287.70-4.50L287.70-4.50L287.70-4.50Q283.80-9.40 283.80-15L283.80-15L283.80-15Q283.80-27.40 290.40-57L290.40-57L290.40-57Q285.40-46.20 277.50-34.90L277.50-34.90L277.50-34.90Q269.60-23.60 262-15L262-15L262-15Q254.40-6.40 250.80-3.80L250.80-3.80L250.80-3.80Q245.80 0 239.80 0L239.80 0L239.80 0Q228.40 0 228.40-14.40L228.40-14.40L228.40-14.40Q228.40-28.40 239-49.30L239-49.30L239-49.30Q249.60-70.20 264.20-85.60L264.20-85.60L264.20-85.60Q278.80-100.80 287.80-100.80L287.80-100.80L287.80-100.80Q297-100.80 298.20-92.80L298.20-92.80L298.20-92.80Q298.80-90.40 298.80-87.60L298.80-87.60L298.80-87.60Q299.80-88.20 301-88.20L301-88.20L301-88.20Q305.60-88.20 305.60-83.80L305.60-83.80L305.60-83L303.20-74.20L303.20-74.20Q300.40-64.20 297.40-44.60L297.40-44.60L297.40-44.60Q294.40-25 294.40-12L294.40-12L296.40-10.80L296.40-10.80Q301.20-7.80 301.20-4.80L301.20-4.80L301.20-4.80Q301.20-2.80 299.80-1.20L299.80-1.20L299.80-1.20Q298.40 0.40 296.20 0.40L296.20 0.40ZM241.40-10.40L241.40-10.40Q243.60-10.40 245-11.80L245-11.80L245-11.80Q265.40-29.20 281.20-60L281.20-60L281.20-60Q288-72.80 289.70-76.80L289.70-76.80L289.70-76.80Q291.40-80.80 291.40-84.60L291.40-84.60L291.40-84.60Q291.40-86.60 290.40-88.20L290.40-88.20L290.40-88.20Q289.40-89.80 287.80-89.80L287.80-89.80L287.80-89.80Q285.80-89.80 282.60-88L282.60-88L282.60-88Q274.60-83.80 263.70-70.20L263.70-70.20L263.70-70.20Q252.80-56.60 245.80-41.40L245.80-41.40L245.80-41.40Q238.40-26 238.40-14L238.40-14L238.40-14Q238.40-10.40 241.40-10.40L241.40-10.40ZM338.60 1.60L338.60 1.60Q331.40 1.60 327.70-2.20L327.70-2.20L327.70-2.20Q324-6 324-12.20L324-12.20L324-12.20Q324-17.60 324.60-22.10L324.60-22.10L324.60-22.10Q325.20-26.60 326.80-36.20L326.80-36.20L326.80-36.20Q330-54.80 335-78.60L335-78.60L340.20-103.80L340.20-103.80Q357.40-186 358.60-190L358.60-190L358.60-190Q359.60-193.20 363-193.20L363-193.20L363-193.20Q367.20-193.20 367.20-188.60L367.20-188.60L366.40-183.40L366.40-183.40Q365.40-177 364.20-171.50L364.20-171.50L364.20-171.50Q363-166 359.80-150.40L359.80-150.40L359.80-150.40Q354.40-125.20 346.10-85.60L346.10-85.60L346.10-85.60Q337.80-46 335.60-32.80L335.60-32.80L335.60-32.80Q333-18.40 333-14.80L333-14.80L333-14.80Q333-11.80 334.80-9.40L334.80-9.40L334.80-9.40Q336.60-7 339.20-7L339.20-7L339.20-7Q342-7 344.50-8.10L344.50-8.10L344.50-8.10Q347-9.20 347.80-9.60L347.80-9.60L351.20-11.40L351.20-11.40Q352.80-12.20 353.20-12.20L353.20-12.20L353.20-12.20Q357.60-12.20 357.60-7.80L357.60-7.80L357.60-7.80Q357.60-3.40 352-0.90L352-0.90L352-0.90Q346.40 1.60 338.60 1.60L338.60 1.60ZM373.20-14.80L373.20-14.80Q373.20-17.40 374.60-18.40L374.60-18.40L374.60-18.40Q376-19.40 378.20-19.80L378.20-19.80L378.20-19.80Q380-19.80 381.10-18.60L381.10-18.60L381.10-18.60Q382.20-17.40 383.80-14.80L383.80-14.80L383.80-14.80Q385.40-12 386.50-10.90L386.50-10.90L386.50-10.90Q387.60-9.80 390.40-9.80L390.40-9.80L390.40-9.80Q396.80-9.80 400.90-13.80L400.90-13.80L400.90-13.80Q405-17.80 405-23.20L405-23.20L405-23.20Q405-29 402.60-35.40L402.60-35.40L402.60-35.40Q400.20-41.80 395.20-51.40L395.20-51.40L395.20-51.40Q385.20-69.40 385.20-80L385.20-80L385.20-80Q385.20-90.60 390.50-97L390.50-97L390.50-97Q395.80-103.40 405-103.40L405-103.40L405-103.40Q411.40-103.40 417.20-99.80L417.20-99.80L417.20-99.80Q423-96.20 423-90.80L423-90.80L423-90.80Q423-85 418.20-85L418.20-85L418.20-85Q416.80-85 415.90-85.80L415.90-85.80L415.90-85.80Q415-86.60 414.20-87.70L414.20-87.70L414.20-87.70Q413.40-88.80 413-89.20L413-89.20L413-89.20Q409.40-93.40 405-93.40L405-93.40L405-93.40Q395.20-93.40 395.20-82L395.20-82L395.20-82Q395.20-75.80 397.60-69.40L397.60-69.40L397.60-69.40Q400-63 404.80-53.20L404.80-53.20L404.80-53.20Q409.40-43.60 411.80-37.20L411.80-37.20L411.80-37.20Q414.20-30.80 414.20-25L414.20-25L414.20-25Q414.20-14.80 408-7.80L408-7.80L408-7.80Q401.80-0.80 390.60 0.60L390.60 0.60L390.60 0.60Q383.60 0.60 378.40-4.30L378.40-4.30L378.40-4.30Q373.20-9.20 373.20-14.80L373.20-14.80Z" fill="#4d695d"></path></g></g><style>text {
  font-size: 64px;
  font-family: Arial Black;
  dominant-baseline: central;
  text-anchor: middle;
}</style></svg>