<svg width="336.37999267578124px" height="144.839990234375px" xmlns="http://www.w3.org/2000/svg" viewBox="81.81000366210938 2.580004882812503 336.37999267578124 144.839990234375" style="background: rgb(62, 72, 94);" preserveAspectRatio="xMidYMid"><defs><filter id="editing-hover" x="-100%" y="-100%" width="300%" height="300%"><feFlood flood-color="#052b4a" result="flood"></feFlood><feComposite operator="in" in2="SourceAlpha" in="flood" result="shadow"></feComposite><feOffset dx="-4" dy="-4" in="SourceGraphic" result="offset-1"></feOffset><feOffset dx="4" dy="4" in="shadow" result="offset-2"></feOffset><feMerge><feMergeNode in="offset-2"></feMergeNode><feMergeNode in="offset-1"></feMergeNode></feMerge></filter></defs><g filter="url(#editing-hover)"><g transform="translate(140.00087428092957, 106.71999931335449)"><path d="M47.59 3.46L47.59 3.46Q47.59 3.74 47.09 3.74L47.09 3.74L47.09 3.74Q46.73 3.74 46.22 3.46L46.22 3.46L46.22 3.46Q45.72 3.17 45.43 2.66L45.43 2.66L45.43 2.66Q44.86 1.44 44.86-0.36L44.86-0.36L44.93-3.31L44.93-3.31Q47.16-16.42 50.18-29.66L50.18-29.66L50.18-29.66Q51.19-33.19 51.88-36.36L51.88-36.36L51.88-36.36Q52.56-39.53 52.70-40.39L52.70-40.39L52.70-40.39Q52.70-40.61 52.31-40.21L52.31-40.21L52.31-40.21Q51.91-39.82 51.55-39.28L51.55-39.28L51.55-39.28Q51.19-38.74 51.26-38.52L51.26-38.52L49.46-35.86L49.46-35.86Q49.03-35.42 47.45-32.54L47.45-32.54L47.45-32.54Q46.37-30.24 45.50-28.94L45.50-28.94L43.49-25.13L43.49-25.13Q41.26-21.02 40.75-20.16L40.75-20.16L40.75-20.16Q40.03-19.08 38.66-16.42L38.66-16.42L38.66-16.42Q37.94-14.69 36.07-12.31L36.07-12.31L36.07-12.31Q35.50-11.52 34.96-10.58L34.96-10.58L34.96-10.58Q34.42-9.65 34.27-9.36L34.27-9.36L34.27-9.36Q34.27-9.00 32.80-6.91L32.80-6.91L32.80-6.91Q31.32-4.82 30.10-3.46L30.10-3.46L30.10-3.46Q28.44-1.73 27.36-0.97L27.36-0.97L27.36-0.97Q26.28-0.22 25.34-0.22L25.34-0.22L25.34-0.22Q24.12-0.22 22.68-1.58L22.68-1.58L22.68-1.58Q21.74-2.59 21.35-3.96L21.35-3.96L21.35-3.96Q20.95-5.33 20.95-7.34L20.95-7.34L20.95-7.34Q20.95-9.14 21.46-13.39L21.46-13.39L21.46-13.39Q21.53-13.75 22.82-21.10L22.82-21.10L22.82-21.10Q24.19-28.51 24.48-29.23L24.48-29.23L24.48-29.23Q24.55-29.66 24.55-30.24L24.55-30.24L24.55-30.24Q24.55-30.89 24.34-30.89L24.34-30.89L24.34-30.89Q24.12-30.89 23.54-29.95L23.54-29.95L23.54-29.95Q23.33-29.66 20.99-25.92L20.99-25.92L20.99-25.92Q18.65-22.18 15.98-16.34L15.98-16.34L15.98-16.34Q11.81-8.64 9.79-4.79L9.79-4.79L9.79-4.79Q7.78-0.94 6.84 0.72L6.84 0.72L6.84 0.72Q5.62 3.10 5.40 3.31L5.40 3.31L5.40 3.31Q4.32 3.31 2.66 1.51L2.66 1.51L2.66 1.51Q2.45 1.08 2.45 0.72L2.45 0.72L2.45 0.72Q2.45 0.22 2.92-0.94L2.92-0.94L2.92-0.94Q3.38-2.09 4.25-3.96L4.25-3.96L4.25-3.96Q6.48-8.35 7.20-8.93L7.20-8.93L7.20-8.93Q8.06-10.08 8.21-11.45L8.21-11.45L8.21-11.45Q9.14-12.74 10.87-16.13L10.87-16.13L10.87-16.13Q11.95-17.86 13.43-20.45L13.43-20.45L13.43-20.45Q14.90-23.04 16.06-25.42L16.06-25.42L18.07-28.94L18.07-28.94Q20.88-33.84 22.57-36.50L22.57-36.50L22.57-36.50Q24.26-39.17 25.13-40.03L25.13-40.03L25.13-40.03Q26.28-41.40 26.28-42.19L26.28-42.19L26.28-42.19Q26.28-43.70 26.89-44.96L26.89-44.96L26.89-44.96Q27.50-46.22 28.15-46.08L28.15-46.08L28.15-46.08Q29.02-46.08 29.56-45.90L29.56-45.90L29.56-45.90Q30.10-45.72 30.67-45.00L30.67-45.00L30.67-45.00Q30.82-44.78 31.14-44.32L31.14-44.32L31.14-44.32Q31.46-43.85 31.64-43.31L31.64-43.31L31.64-43.31Q31.82-42.77 31.82-41.98L31.82-41.98L31.82-41.98Q31.82-41.11 31.61-39.82L31.61-39.82L31.61-39.82Q31.54-38.88 31.03-35.57L31.03-35.57L31.03-35.57Q30.74-33.98 30.74-33.62L30.74-33.62L30.74-33.62Q28.87-27.94 27.40-19.40L27.40-19.40L27.40-19.40Q25.92-10.87 25.92-7.42L25.92-7.42L25.92-7.42Q25.92-6.62 26.06-6.34L26.06-6.34L26.06-6.34Q26.57-5.98 26.96-6.26L26.96-6.26L26.96-6.26Q27.36-6.55 28.15-8.14L28.15-8.14L28.15-8.14Q29.09-9.86 31.32-12.60L31.32-12.60L31.32-12.60Q31.46-12.82 34.13-17.35L34.13-17.35L34.13-17.35Q40.75-28.22 47.02-39.17L47.02-39.17L48.89-42.12L48.89-42.12Q49.97-43.85 50.98-45.32L50.98-45.32L50.98-45.32Q51.98-46.80 52.56-47.23L52.56-47.23L52.56-47.23Q53.28-47.81 53.93-47.81L53.93-47.81L53.93-47.81Q55.30-47.81 56.38-46.15L56.38-46.15L56.38-46.15Q57.46-44.50 57.46-41.98L57.46-41.98L57.46-41.98Q57.46-40.03 56.66-36.04L56.66-36.04L56.66-36.04Q55.87-32.04 54.58-28.01L54.58-28.01L54.58-28.01Q54.14-25.99 53.35-22.97L53.35-22.97L53.35-22.97Q52.56-19.94 51.70-17.50L51.70-17.50L51.70-17.50Q51.55-16.27 51.12-14.40L51.12-14.40L51.12-14.40Q51.05-14.04 50.72-12.20L50.72-12.20L50.72-12.20Q50.40-10.37 50.54-9.72L50.54-9.72L50.54-9.72Q49.46-7.78 49.46-1.94L49.46-1.94L49.25-0.29L49.25-0.29Q49.10 1.73 48.96 2.45L48.96 2.45L48.96 2.45Q48.82 3.17 48.53 3.10L48.53 3.10L48.53 3.10Q48.38 3.02 48.10 3.02L48.10 3.02L48.10 3.02Q47.59 3.02 47.59 3.46L47.59 3.46ZM79.34-26.57L79.34-26.57Q80.50-25.42 80.50-24.19L80.50-24.19L80.50-24.19Q80.50-22.90 78.77-19.66L78.77-19.66L78.77-19.66Q78.19-18.00 77.51-16.56L77.51-16.56L77.51-16.56Q76.82-15.12 76.46-14.69L76.46-14.69L74.81-10.87L74.81-10.87Q73.73-8.50 72.14-5.33L72.14-5.33L72.14-5.33Q70.20-1.30 69.41 0.65L69.41 0.65L68.47 2.16L68.47 2.16Q64.87 7.92 62.93 10.22L62.93 10.22L62.93 10.22Q58.97 13.75 56.81 14.33L56.81 14.33L56.81 14.33Q55.87 14.62 54.58 14.62L54.58 14.62L54.58 14.62Q52.20 14.62 50.08 13.57L50.08 13.57L50.08 13.57Q47.95 12.53 47.66 11.16L47.66 11.16L47.66 11.16Q47.59 10.66 48.02 10.08L48.02 10.08L48.02 10.08Q48.46 9.50 48.96 9.50L48.96 9.50L48.96 9.50Q49.32 9.50 49.54 9.79L49.54 9.79L49.54 9.79Q50.11 10.22 51.23 10.62L51.23 10.62L51.23 10.62Q52.34 11.02 53.64 11.02L53.64 11.02L53.64 11.02Q54.14 11.02 55.01 10.87L55.01 10.87L55.01 10.87Q56.45 10.58 58.03 9.14L58.03 9.14L58.03 9.14Q59.62 7.70 60.91 5.98L60.91 5.98L60.91 5.98Q63.36 2.38 66.17-3.02L66.17-3.02L66.17-3.02Q65.16-3.31 64.22-4.43L64.22-4.43L64.22-4.43Q63.29-5.54 62.75-6.77L62.75-6.77L62.75-6.77Q62.21-7.99 62.35-8.57L62.35-8.57L62.35-9.36L62.35-9.36Q61.70-9.36 61.31-11.81L61.31-11.81L61.31-11.81Q60.91-14.26 60.91-17.50L60.91-17.50L60.91-17.50Q60.91-18.72 61.06-20.59L61.06-20.59L61.06-20.59Q61.34-21.74 61.38-23.44L61.38-23.44L61.38-23.44Q61.42-25.13 61.42-25.63L61.42-25.63L61.42-25.92L61.42-25.92Q61.42-26.78 61.60-27.14L61.60-27.14L61.60-27.14Q61.78-27.50 62.21-27.79L62.21-27.79L62.21-27.79Q62.78-28.08 63.36-28.08L63.36-28.08L63.36-28.08Q65.38-28.08 65.38-22.75L65.38-22.75L65.38-22.75Q65.38-21.96 65.23-19.66L65.23-19.66L65.23-19.66Q65.16-18.65 65.16-16.63L65.16-16.63L65.16-16.63Q65.16-12.89 65.81-10.01L65.81-10.01L65.81-10.01Q66.46-7.13 67.75-6.05L67.75-6.05L68.18-7.06L68.18-7.06Q68.98-9.14 69.41-9.72L69.41-9.72L69.41-9.72Q70.42-11.81 70.56-12.38L70.56-12.38L70.56-12.38Q70.70-12.89 71.35-14.04L71.35-14.04L72.29-15.98L72.29-15.98Q72.43-16.42 73.22-18.76L73.22-18.76L73.22-18.76Q74.02-21.10 74.81-22.54L74.81-22.54L74.81-22.54Q75.10-23.11 75.67-24.23L75.67-24.23L75.67-24.23Q76.25-25.34 76.61-25.85L76.61-25.85L76.61-25.85Q76.97-26.35 77.40-26.50L77.40-26.50L77.40-26.50Q77.98-27.00 78.34-27.00L78.34-27.00L78.34-27.00Q78.62-27.00 79.34-26.57L79.34-26.57ZM106.20 2.23L106.20 2.23Q104.26 1.01 103.14-1.22L103.14-1.22L103.14-1.22Q102.02-3.46 102.17-5.83L102.17-5.83L102.17-5.83Q102.10-14.33 105.12-23.76L105.12-23.76L105.12-23.76Q106.42-27.58 108.29-31.79L108.29-31.79L108.29-31.79Q110.16-36.00 111.46-38.23L111.46-38.23L111.46-38.23Q113.47-41.54 115.92-44.06L115.92-44.06L115.92-44.06Q118.37-46.58 119.88-47.45L119.88-47.45L119.88-47.45Q120.82-47.95 122.44-48.38L122.44-48.38L122.44-48.38Q124.06-48.82 125.86-48.82L125.86-48.82L125.86-48.82Q127.30-48.82 128.52-48.53L128.52-48.53L128.52-48.53Q130.25-48.10 131.90-47.34L131.90-47.34L131.90-47.34Q133.56-46.58 134.14-46.08L134.14-46.08L134.14-46.08Q134.42-45.65 134.82-45.07L134.82-45.07L134.82-45.07Q135.22-44.50 135.43-44.06L135.43-44.06L135.43-44.06Q135.65-43.63 135.65-43.13L135.65-43.13L135.65-43.13Q135.72-42.41 135.04-41.40L135.04-41.40L135.04-41.40Q134.35-40.39 133.63-40.39L133.63-40.39L133.63-40.39Q133.20-40.39 132.77-40.90L132.77-40.90L132.77-40.90Q132.05-41.98 131.33-42.52L131.33-42.52L131.33-42.52Q130.61-43.06 129.82-43.42L129.82-43.42L129.82-43.42Q129.02-43.78 128.66-43.99L128.66-43.99L128.66-43.99Q127.73-44.57 126.07-44.57L126.07-44.57L126.07-44.57Q124.78-44.57 123.44-44.17L123.44-44.17L123.44-44.17Q122.11-43.78 121.18-42.98L121.18-42.98L121.18-42.98Q119.88-41.83 118.01-39.56L118.01-39.56L118.01-39.56Q116.14-37.30 115.13-35.35L115.13-35.35L115.13-35.35Q110.81-27.79 109.01-21.10L109.01-21.10L109.01-21.10Q108.43-19.01 107.71-15.84L107.71-15.84L107.71-15.84Q106.99-12.67 106.78-11.09L106.78-11.09L106.78-11.09Q106.34-8.42 106.34-6.26L106.34-6.26L106.34-6.26Q106.34-3.60 107.24-2.20L107.24-2.20L107.24-2.20Q108.14-0.79 110.23-0.79L110.23-0.79L110.23-0.79Q111.67-0.79 113.76-1.51L113.76-1.51L113.76-1.51Q116.14-1.80 119.16-4.28L119.16-4.28L119.16-4.28Q122.18-6.77 124.20-9.94L124.20-9.94L124.20-9.94Q127.44-15.98 127.44-18.07L127.44-18.07L127.44-18.07Q127.44-19.51 126.07-19.51L126.07-19.51L126.07-19.51Q124.63-19.66 122.47-19.66L122.47-19.66L122.47-19.66Q121.03-19.66 120.24-19.73L120.24-19.73L120.24-19.73Q119.45-19.80 118.80-20.16L118.80-20.16L118.80-20.16Q118.30-20.95 118.30-21.53L118.30-21.53L118.30-21.53Q118.30-22.39 119.23-23.33L119.23-23.33L119.23-23.33Q120.24-23.76 123.19-23.76L123.19-23.76L123.19-23.76Q127.37-23.76 129.74-22.61L129.74-22.61L129.74-22.61Q131.98-21.53 131.98-18.22L131.98-18.22L131.98-18.22Q131.98-16.63 131.69-15.41L131.69-15.41L131.69-15.41Q131.04-12.60 127.30-6.98L127.30-6.98L127.30-6.98Q125.64-4.68 122.36-1.98L122.36-1.98L122.36-1.98Q119.09 0.72 117.07 1.51L117.07 1.51L117.07 1.51Q113.11 3.31 109.94 3.31L109.94 3.31L109.94 3.31Q107.71 3.31 106.20 2.23L106.20 2.23ZM141.12-1.08L141.12-1.08Q140.26-1.08 139.75-1.37L139.75-1.37L139.75-1.37Q139.25-1.66 138.31-2.45L138.31-2.45L138.31-2.45Q135.94-4.97 135.94-7.06L135.94-7.06L135.94-7.06Q135.94-7.56 136.01-7.78L136.01-7.78L136.01-7.78Q136.22-8.28 136.19-8.78L136.19-8.78L136.19-8.78Q136.15-9.29 136.15-9.43L136.15-9.43L136.15-9.43Q135.86-9.72 135.86-9.83L135.86-9.83L135.86-9.83Q135.86-9.94 136.01-10.04L136.01-10.04L136.01-10.04Q136.15-10.15 136.22-10.30L136.22-10.30L136.22-10.30Q136.66-10.30 136.51-11.09L136.51-11.09L136.51-11.09Q136.37-11.66 137.09-13.64L137.09-13.64L137.09-13.64Q137.81-15.62 138.89-17.28L138.89-17.28L138.89-17.28Q139.68-18.58 141.23-20.52L141.23-20.52L141.23-20.52Q142.78-22.46 144.00-23.47L144.00-23.47L144.00-23.47Q145.73-24.98 147.10-25.70L147.10-25.70L147.10-25.70Q148.46-26.42 150.12-26.78L150.12-26.78L150.12-26.78Q151.56-27.14 152.06-27.14L152.06-27.14L152.06-27.14Q152.57-27.14 152.96-26.89L152.96-26.89L152.96-26.89Q153.36-26.64 154.01-25.99L154.01-25.99L154.01-25.99Q155.95-25.13 156.71-23.80L156.71-23.80L156.71-23.80Q157.46-22.46 157.46-19.66L157.46-19.66L157.46-19.66Q157.46-14.98 153.65-9.50L153.65-9.50L153.65-9.50Q151.99-7.13 150.55-5.87L150.55-5.87L150.55-5.87Q149.11-4.61 146.74-3.17L146.74-3.17L146.74-3.17Q145.22-2.09 143.96-1.62L143.96-1.62L143.96-1.62Q142.70-1.15 141.12-1.08L141.12-1.08ZM148.03-8.71L148.03-8.71Q149.76-10.66 150.80-12.38L150.80-12.38L150.80-12.38Q151.85-14.11 152.78-16.78L152.78-16.78L152.78-16.78Q153.14-18.00 153.14-19.73L153.14-19.73L153.14-19.73Q153.14-21.89 152.57-22.18L152.57-22.18L152.57-22.18Q151.85-22.54 151.13-22.54L151.13-22.54L151.13-22.54Q149.54-22.54 147.82-21.10L147.82-21.10L147.82-21.10Q145.73-19.30 144.07-16.67L144.07-16.67L144.07-16.67Q142.42-14.04 140.69-10.15L140.69-10.15L140.69-10.15Q139.97-8.64 139.97-7.20L139.97-7.20L139.97-7.20Q139.97-6.12 140.51-5.47L140.51-5.47L140.51-5.47Q141.05-4.82 141.98-4.82L141.98-4.82L141.98-4.82Q144.36-4.82 148.03-8.71L148.03-8.71ZM162.07-2.59L162.07-2.59Q161.86-3.02 161.39-3.49L161.39-3.49L161.39-3.49Q160.92-3.96 160.92-4.10L160.92-4.10L160.92-4.10Q160.92-4.90 160.56-5.33L160.56-5.33L160.56-5.33Q160.42-5.47 160.42-5.98L160.42-5.98L160.42-5.98Q160.42-7.13 161.53-9.90L161.53-9.90L161.53-9.90Q162.65-12.67 164.45-15.91L164.45-15.91L164.45-15.91Q164.88-16.34 165.56-17.42L165.56-17.42L165.56-17.42Q166.25-18.50 166.46-18.65L166.46-18.65L166.46-18.65Q166.46-18.94 166.68-19.19L166.68-19.19L166.68-19.19Q166.90-19.44 167.18-19.44L167.18-19.44L167.18-19.87L167.18-19.87Q167.18-20.52 169.56-23.00L169.56-23.00L169.56-23.00Q171.94-25.49 173.45-26.42L173.45-26.42L173.45-26.42Q175.25-27.65 177.12-27.65L177.12-27.65L177.12-27.65Q178.42-27.65 179.35-26.93L179.35-26.93L179.35-26.93Q179.71-26.50 182.66-23.83L182.66-23.83L185.33-21.46L184.03-17.86L184.03-17.86Q183.38-15.91 183.38-14.33L183.38-14.33L183.38-14.33Q183.38-11.59 184.97-9.07L184.97-9.07L184.97-9.07Q185.33-8.28 186.41-7.56L186.41-7.56L186.41-7.56Q187.49-6.84 188.57-6.70L188.57-6.70L188.57-6.70Q190.15-6.41 190.15-5.11L190.15-5.11L190.15-5.11Q190.15-3.67 188.86-3.38L188.86-3.38L188.86-3.38Q188.57-3.31 187.99-3.31L187.99-3.31L187.99-3.31Q183.74-3.31 180.65-9.29L180.65-9.29L180.65-9.29Q180.36-9.72 179.89-10.87L179.89-10.87L179.89-10.87Q179.42-12.02 179.35-12.46L179.35-12.46L179.35-12.46Q178.92-11.88 178.27-11.09L178.27-11.09L178.27-11.09Q177.62-10.30 177.05-9.72L177.05-9.72L177.05-9.72Q169.20-1.87 164.66-1.87L164.66-1.87L164.66-1.87Q163.22-1.87 162.07-2.59L162.07-2.59ZM164.66-6.62L164.66-6.62Q164.66-6.26 165.42-6.41L165.42-6.41L165.42-6.41Q166.18-6.55 167.29-7.13L167.29-7.13L167.29-7.13Q168.41-7.70 169.56-8.64L169.56-8.64L169.56-8.64Q175.75-13.97 178.49-17.93L178.49-17.93L180.07-20.52L180.07-20.52Q179.35-22.03 178.56-22.72L178.56-22.72L178.56-22.72Q177.77-23.40 177.12-23.40L177.12-23.40L177.12-23.40Q175.61-23.40 172.37-19.62L172.37-19.62L172.37-19.62Q169.13-15.84 166.46-10.73L166.46-10.73L166.46-10.73Q165.82-9.50 165.31-8.24L165.31-8.24L165.31-8.24Q164.81-6.98 164.66-6.62L164.66-6.62ZM195.19 0L195.19 0Q194.98 0.07 194.47 0.07L194.47 0.07L194.47 0.07Q193.32 0.07 192.67-1.08L192.67-1.08L192.67-1.08Q192.02-2.23 192.02-4.25L192.02-4.25L192.02-4.25Q192.02-5.90 192.46-8.06L192.46-8.06L192.46-8.06Q193.25-10.15 193.25-11.09L193.25-11.09L193.25-11.09Q193.46-12.46 194.72-16.02L194.72-16.02L194.72-16.02Q195.98-19.58 196.34-20.30L196.34-20.30L196.34-20.30Q196.63-20.30 196.85-20.77L196.85-20.77L196.85-20.77Q197.06-21.24 197.06-21.82L197.06-21.82L197.06-21.82Q197.06-22.46 197.32-23.15L197.32-23.15L197.32-23.15Q197.57-23.83 197.86-24.12L197.86-24.12L197.86-24.12Q197.86-24.34 198.04-24.91L198.04-24.91L198.04-24.91Q198.22-25.49 198.22-25.70L198.22-25.70L198.22-25.70Q198.22-25.85 198.40-26.24L198.40-26.24L198.40-26.24Q198.58-26.64 198.58-26.86L198.58-26.86L198.58-26.86Q199.73-29.09 202.61-36.90L202.61-36.90L202.61-36.90Q205.49-44.71 205.49-45.58L205.49-45.58L205.49-45.58Q205.49-46.73 206.64-46.73L206.64-46.73L206.64-46.73Q207.00-47.09 207.79-47.09L207.79-47.09L208.94-45.94L208.94-45.94Q209.45-45.43 209.59-44.89L209.59-44.89L209.59-44.89Q209.74-44.35 209.74-43.27L209.74-43.27L209.74-43.27Q209.74-42.19 209.45-41.40L209.45-41.40L209.45-41.40Q209.16-40.61 208.01-38.16L208.01-38.16L208.01-38.16Q207.79-37.66 207.43-36.97L207.43-36.97L207.43-36.97Q207.07-36.29 206.64-35.28L206.64-35.28L206.64-35.28Q206.50-34.92 205.49-32.69L205.49-32.69L205.49-32.69Q204.77-31.25 204.77-31.03L204.77-31.03L204.77-31.03Q204.77-30.82 204.48-30.13L204.48-30.13L204.48-30.13Q204.19-29.45 203.98-28.73L203.98-28.73L203.98-28.73Q203.40-27.58 202.14-24.66L202.14-24.66L202.14-24.66Q200.88-21.74 200.88-21.46L200.88-21.46L200.88-21.46Q200.88-20.66 200.52-20.30L200.52-20.30L200.52-20.30Q200.30-20.30 200.23-19.98L200.23-19.98L200.23-19.98Q200.16-19.66 200.16-19.51L200.16-19.51L200.16-19.51Q200.16-18.79 199.01-15.70L199.01-15.70L198.36-13.61L198.36-13.61Q196.99-8.93 196.45-6.77L196.45-6.77L196.45-6.77Q195.91-4.61 195.91-3.10L195.91-3.10L195.91-3.10Q195.91-1.30 195.80-0.79L195.80-0.79L195.80-0.79Q195.70-0.29 195.19 0L195.19 0ZM209.59 0.29L209.59 0.29Q208.30-0.22 207.07-1.19L207.07-1.19L207.07-1.19Q205.85-2.16 205.42-2.88L205.42-2.88L205.42-2.88Q205.42-3.02 205.42-3.38L205.42-3.38L205.42-3.38Q205.42-3.74 205.63-3.85L205.63-3.85L205.63-3.85Q205.85-3.96 206.42-3.96L206.42-3.96L206.42-3.96Q207.65-3.96 210.31-3.67L210.31-3.67L210.31-3.67Q211.90-3.67 213.91-4.07L213.91-4.07L213.91-4.07Q215.93-4.46 216.14-4.97L216.14-4.97L216.14-4.97Q216.36-4.97 216.36-5.04L216.36-5.04L216.36-5.04Q216.36-5.18 215.78-5.76L215.78-5.76L215.78-5.76Q215.64-5.76 215.14-6.01L215.14-6.01L215.14-6.01Q214.63-6.26 214.49-6.26L214.49-6.26L214.49-6.26Q214.49-6.55 213.84-7.02L213.84-7.02L213.84-7.02Q213.19-7.49 212.40-7.85L212.40-7.85L212.40-7.85Q210.31-9.58 209.45-10.40L209.45-10.40L209.45-10.40Q208.58-11.23 208.80-11.59L208.80-11.59L208.80-11.95L208.80-11.95Q208.30-11.95 207.68-13.36L207.68-13.36L207.68-13.36Q207.07-14.76 207.07-15.98L207.07-15.98L207.07-15.98Q207.07-17.28 208.19-19.58L208.19-19.58L208.19-19.58Q209.30-21.89 210.74-23.33L210.74-23.33L210.74-23.33Q212.76-25.20 215.96-27.29L215.96-27.29L215.96-27.29Q219.17-29.38 221.04-29.95L221.04-29.95L221.04-29.95Q222.26-30.46 223.49-30.46L223.49-30.46L223.49-30.46Q224.64-30.46 225.43-29.95L225.43-29.95L225.43-29.95Q226.37-29.38 227.27-28.30L227.27-28.30L227.27-28.30Q228.17-27.22 228.46-26.35L228.46-26.35L228.46-26.35Q228.46-24.77 228.13-23.29L228.13-23.29L228.13-23.29Q227.81-21.82 227.16-21.82L227.16-21.82L227.16-21.82Q227.09-21.82 226.94-21.74L226.94-21.74L226.94-21.74Q226.80-21.67 226.80-21.38L226.80-21.38L226.80-21.38Q226.80-21.10 226.51-20.63L226.51-20.63L226.51-20.63Q226.22-20.16 225.72-19.73L225.72-19.73L225.72-19.73Q224.14-18.58 223.13-18.58L223.13-18.58L223.13-18.58Q222.34-18.58 222.12-19.37L222.12-19.37L222.12-19.37Q221.98-19.51 221.83-19.80L221.83-19.80L221.83-19.80Q221.69-20.09 221.47-20.09L221.47-20.09L221.47-20.09Q221.40-20.09 221.22-20.34L221.22-20.34L221.22-20.34Q221.04-20.59 221.04-21.02L221.04-21.02L221.04-21.02Q221.04-21.24 221.22-21.49L221.22-21.49L221.22-21.49Q221.40-21.74 221.47-21.82L221.47-21.82L221.47-21.82Q221.90-21.82 222.91-23.51L222.91-23.51L222.91-23.51Q223.92-25.20 223.92-25.78L223.92-25.78L223.92-25.78Q223.92-26.21 223.81-26.28L223.81-26.28L223.81-26.28Q223.70-26.35 223.13-26.35L223.13-26.35L223.13-26.35Q217.51-23.83 216.14-22.54L216.14-22.54L216.14-22.54Q215.93-22.10 215.82-21.96L215.82-21.96L215.82-21.96Q215.71-21.82 215.42-21.82L215.42-21.82L215.42-21.82Q215.42-22.46 211.61-16.92L211.61-16.92L211.61-16.92Q211.46-16.78 211.28-16.06L211.28-16.06L211.28-16.06Q211.10-15.34 211.10-14.83L211.10-14.83L211.10-14.83Q210.96-14.26 210.96-14.18L210.96-14.18L210.96-14.18Q210.96-13.90 211.21-13.61L211.21-13.61L211.21-13.61Q211.46-13.32 211.90-13.00L211.90-13.00L211.90-13.00Q212.33-12.67 212.76-12.31L212.76-12.31L212.76-12.31Q216.50-9.50 217.98-8.10L217.98-8.10L217.98-8.10Q219.46-6.70 219.74-5.76L219.74-5.76L219.74-5.76Q220.68-4.32 220.68-3.17L220.68-3.17L220.68-3.17Q220.68-2.30 220.03-1.66L220.03-1.66L220.03-1.66Q219.38-1.01 218.09-0.43L218.09-0.43L218.09-0.43Q217.30-0.07 215.42 0.18L215.42 0.18L215.42 0.18Q213.55 0.43 211.75 0.43L211.75 0.43L211.75 0.43Q210.74 0.43 209.59 0.29L209.59 0.29Z" fill="#ffd5af"></path></g></g><style>text {
  font-size: 64px;
  font-family: Arial Black;
  dominant-baseline: central;
  text-anchor: middle;
}</style></svg>